# xmcd
#
# Track frame offsets:
#	150
#	17023
#	32382
#	49582
#	65969
#	81482
#	101314
#	118123
#	133743
#	149754
#	164052
#	175905
#
# Disc length: 2574 seconds
# Revision: 0
# Processed by: cddbd v1.5.2PL0 Copyright (c) Steve Scherf et al.
# Submitted via: dBpowerAMP V12.0
#
DISCID=ae0a0c0c
DTITLE=Guy Clark - The Dark
DYEAR=2002
DGENRE=Country
TTITLE0=Mud
TTITLE1=Arizona Star
TTITLE2=Magnolia Wind
TTITLE3=Soldier's Joy, 1864
TTITLE4=Dancin' Days
TTITLE5=Homeless
TTITLE6=Off the Map
TTITLE7=Bag of Bones
TTITLE8=She Loves to Ride Horses
TTITLE9=Rex's Blues
TTITLE10=Queenie's Song
TTITLE11=The Dark
EXTD=
EXTT0=
EXTT1=
EXTT2=
EXTT3=
EXTT4=
EXTT5=
EXTT6=
EXTT7=
EXTT8=
EXTT9=
EXTT10=
EXTT11=
PLAYORDER=
